<?xml version="1.0" encoding="UTF-8"?>
<svg id="Layer_1" data-name="Layer 1" xmlns="http://www.w3.org/2000/svg" viewBox="0 0 1000 1000">
  <defs>
    <style>
      .cls-1 {
        fill: #f9f7f2;
      }
    </style>
  </defs>
  <path class="cls-1" d="M245.09,361.93c.18,67.87,57.76,124.01,124.21,124.3l46.57-1.96c15.75.07,28.74,9.36,33.55,22.25,5.73,15.35,1.93,30.83-11.37,41.46l-248.64,198.67c-5.24,4.19-8.42,10.3-8.42,16.7l-.29,28.24c-.62,29.53,17.14,43.89,28.4,43.87l169.72-.9,430.17-310.28c4.93-3.94,7.94-10.61,7.94-16.54l2.41-83.02c0-11.27-8-20.16-19.53-20.16l-230.56.12c-32.3.02-56.35-23.52-56.33-55.81l.08-164.35c0-11.18-8.1-20-19.71-20l-228.82,2.41c-10.57,0-19.85,7.51-19.83,18.19l.46,176.8Z"/>
</svg>