<?xml version="1.0" encoding="UTF-8"?>
<svg id="Layer_1" data-name="Layer 1" xmlns="http://www.w3.org/2000/svg" viewBox="0 0 1000 1000">
  <defs>
    <style>
      .cls-1 {
        fill: #f9f7f2;
      }
    </style>
  </defs>
  <g>
    <path class="cls-1" d="M345.35,670.34c-5.01.07-9.15-.7-12.45-2.31-3.28-1.61-5.86-4.06-7.72-7.35-1.86-3.29-3.19-7.48-3.97-12.55-.79-5.08-1.19-11.09-1.19-18.03s.42-12.48,1.23-17.49c.83-5.01,2.24-9.18,4.25-12.51,1.99-3.32,4.73-5.81,8.21-7.46,3.46-1.64,7.81-2.47,13.03-2.47,2.79,0,5.69.11,8.7.33,3,.22,5.94.54,8.79.97,2.86.43,5.52.93,7.94,1.5v6.44c-1.43-.22-3.42-.45-6.01-.7-2.57-.25-5.45-.45-8.64-.59-3.18-.14-6.35-.21-9.49-.21-5.15,0-9.14,1.05-11.97,3.16-2.82,2.11-4.79,5.55-5.9,10.31-1.11,4.76-1.65,11.03-1.65,18.84,0,6.29.3,11.52.91,15.67.61,4.15,1.63,7.44,3.06,9.87,1.42,2.43,3.38,4.17,5.85,5.21,2.47,1.04,5.59,1.56,9.39,1.56,3.37,0,6.84-.43,10.41-1.29,3.58-.86,6.61-1.79,9.13-2.79v-23.29h-19.11v-6.33c1.36-.22,3-.39,4.94-.54,1.93-.15,3.98-.27,6.17-.38,2.18-.1,4.38-.16,6.6-.16,1.85,0,3.61.02,5.25.05,1.65.03,3.07.16,4.3.37v41.64h-6.23l-1.28-5.58c-2.57,1.29-5.85,2.61-9.82,3.97-3.97,1.36-8.21,2.07-12.73,2.14Z"/>
    <path class="cls-1" d="M398.16,669.81v-78.99h31.13c2.57,0,5.08.3,7.51.91,2.42.61,4.62,1.74,6.59,3.38,1.97,1.65,3.53,3.99,4.67,7.03,1.15,3.04,1.72,7.03,1.72,11.97,0,4.29-.47,7.81-1.4,10.57-.93,2.76-2.14,4.94-3.65,6.55-1.5,1.61-3.13,2.79-4.89,3.54-1.75.75-3.45,1.27-5.09,1.55l16.2,33.49h-8.69l-15.35-32.3c-1.15,0-2.57-.03-4.3-.1-1.71-.08-3.54-.11-5.47-.11s-3.81-.03-5.64-.1c-1.82-.07-3.41-.11-4.77-.11v32.74h-8.58ZM406.74,630.53h21.25c1.86,0,3.58-.22,5.15-.65,1.57-.43,2.97-1.23,4.19-2.41,1.21-1.18,2.18-2.85,2.9-5,.71-2.14,1.07-4.93,1.07-8.37s-.36-5.96-1.07-7.99c-.72-2.04-1.7-3.62-2.96-4.72-1.25-1.11-2.67-1.86-4.24-2.25-1.57-.4-3.26-.59-5.04-.59h-21.25v31.98Z"/>
    <path class="cls-1" d="M498.07,670.45c-5.08,0-9.53-.48-13.36-1.45-3.83-.97-7.01-2.81-9.55-5.53-2.54-2.72-4.44-6.73-5.69-12.02-1.25-5.29-1.87-12.23-1.87-20.82s.64-15.54,1.93-20.87c1.28-5.33,3.21-9.4,5.8-12.23,2.57-2.82,5.75-4.76,9.55-5.79,3.78-1.04,8.19-1.56,13.19-1.56s9.64.52,13.47,1.56c3.83,1.04,7.01,2.97,9.55,5.79,2.54,2.83,4.41,6.91,5.64,12.23,1.21,5.33,1.83,12.29,1.83,20.87s-.63,15.53-1.89,20.82c-1.25,5.3-3.14,9.3-5.68,12.02-2.54,2.72-5.71,4.56-9.5,5.53-3.78.97-8.26,1.45-13.42,1.45ZM498.07,662.83c4.01,0,7.41-.39,10.2-1.18,2.78-.79,5.05-2.31,6.81-4.56,1.76-2.25,3.03-5.49,3.81-9.71.79-4.22,1.19-9.81,1.19-16.75s-.42-13.02-1.23-17.39c-.83-4.36-2.12-7.65-3.87-9.87-1.76-2.22-4.01-3.69-6.77-4.4-2.75-.72-6.14-1.07-10.14-1.07-3.71,0-6.95.36-9.71,1.07-2.75.72-5.04,2.18-6.87,4.4-1.82,2.22-3.18,5.51-4.08,9.87-.9,4.37-1.34,10.16-1.34,17.39s.37,12.52,1.13,16.75c.75,4.22,1.98,7.46,3.7,9.71,1.71,2.25,3.98,3.77,6.81,4.56,2.83.79,6.28,1.18,10.35,1.18Z"/>
    <path class="cls-1" d="M577.28,670.45c-4.44,0-8.44-.4-12.02-1.18-3.59-.79-6.64-2.13-9.18-4.02-2.55-1.9-4.5-4.47-5.86-7.73-1.35-3.25-2.04-7.32-2.04-12.18v-54.52h8.59v54.52c0,4.51.8,8.01,2.41,10.52,1.61,2.5,3.95,4.27,7.03,5.31,3.07,1.04,6.75,1.55,11.05,1.55s7.98-.52,11.05-1.55c3.07-1.04,5.42-2.81,7.03-5.31,1.61-2.5,2.41-6.01,2.41-10.52v-54.52h8.58v54.52c0,4.86-.68,8.93-2.04,12.18-1.36,3.25-3.31,5.83-5.85,7.73-2.54,1.89-5.6,3.24-9.18,4.02-3.58.79-7.58,1.18-12.02,1.18Z"/>
    <path class="cls-1" d="M627.93,669.81v-78.99h31.45c2.28,0,4.62.3,7.02.91,2.4.61,4.63,1.79,6.71,3.54,2.07,1.75,3.74,4.29,5,7.62,1.25,3.32,1.87,7.71,1.87,13.15s-.66,10.07-1.98,13.47c-1.33,3.4-3.05,6.01-5.16,7.83-2.11,1.83-4.38,3.06-6.81,3.7-2.43.65-4.8.97-7.08.97-1.07,0-2.66-.03-4.73-.1-2.07-.07-4.27-.16-6.59-.27-2.33-.11-4.5-.23-6.5-.38-2-.14-3.54-.25-4.61-.32v28.87h-8.59ZM636.52,634.39h21.36c2.5,0,4.79-.54,6.86-1.61,2.08-1.07,3.7-2.93,4.89-5.58,1.18-2.64,1.77-6.33,1.77-11.05s-.59-8.25-1.77-10.78c-1.19-2.54-2.74-4.31-4.67-5.32-1.93-1-4.04-1.5-6.34-1.5h-22.1v35.84Z"/>
  </g>
  <g>
    <path class="cls-1" d="M274.76,344.38c-1.99-4.64-8.41-14.72-20.13-14.72h-32.66c-13.47,0-19.82,10.82-21.48,14.8l-81.55,199.35-4.4,10.96,46.07.31c6.96,0,11.6-3.32,13.59-9.28l15.58-44.09h91.64l15.58,44.42c2.32,6.96,6.63,8.95,13.92,8.95h37.09c7.96,0,11.6-2.98,8.29-11.27l-81.55-199.43ZM196.28,469.86l38.73-97.82,38.2,97.82h-76.93Z"/>
    <path class="cls-1" d="M601.86,442.53c1.37-1.6,2.67-3.24,3.91-4.94,21.33-29.37,12.43-70.12-16.15-91.13-13.78-10.13-29.86-16.61-47.58-16.64l-133.83-.27c-11.86.77-21.23,9.29-21.23,21.51l.03,203.67,180.59-.3c21.26-.04,39.45-12.54,50.83-29.19,15.56-25.98,9.21-65.17-16.57-82.72ZM539.02,375.03c16.38.75,31.33,10.96,30.74,27.45-.58,16.11-15.53,24.71-32.09,24.71l-102.69-.04-.09-52.13h104.13ZM577.59,497c-1.68,5.15-7.72,11.78-15.74,11.8l-126.88.19-.09-43.13,104.42-.63c3.08-.02,8.25-.08,11.33-.05,11.4.1,13.53.15,19.89,4.65.24.17.47.34.7.51,6.14,4.7,8.93,18.89,6.39,26.66Z"/>
    <path class="cls-1" d="M878.28,329.64l-32.21-.04c-3.96,0-7.17,3.2-7.17,7.16l-.02,142.68c.16,3.27.18,5.78.03,8.51l-59.96-68.89-64.94-74.12c-5.74-6.55-11.88-11.95-20.46-14.22-9.48-2.5-19.3-.61-26.97,5.49-6.85,5.45-11.08,13.75-11.1,23.67l-.03,194.77,32.22.02c8.09,0,14.65-6.56,14.65-14.65l-.05-127.32-.49-14.74,60.78,69.22,65.22,74.83c12.69,14.56,33.6,17.84,48.5,4.1,6.19-5.71,8.34-13.35,9.18-21.72v-187.59c-.01-3.95-3.21-7.16-7.17-7.16Z"/>
  </g>
</svg>